<svg width="16" height="16" viewBox="0 0 16 16" fill="none" xmlns="http://www.w3.org/2000/svg">
<path d="M16 11.6442V15.1924C16 15.2631 15.9899 15.3287 15.9748 15.3893C15.9043 15.7375 15.597 16 15.2343 16H0.760705C0.372796 16 0.0503779 15.7022 0.0100756 15.3237C3.82851e-08 15.2782 0 15.2379 0 15.1874V11.6391C0 11.2202 0.342569 10.882 0.755668 10.882C0.962217 10.882 1.15365 10.9678 1.28967 11.1041C1.42569 11.2404 1.51133 11.4322 1.51133 11.6391V14.4808H14.4937V11.6391C14.4937 11.2202 14.8363 10.882 15.2494 10.882C15.4559 10.882 15.6474 10.9678 15.7834 11.1041C15.9144 11.2454 16 11.4372 16 11.6442Z" fill="white"/>
<path d="M12.3576 8.09085L8.64479 11.8107C8.63975 11.8208 8.62968 11.8259 8.62464 11.8309C8.48862 11.9672 8.3123 12.053 8.13597 12.0782C8.12086 12.0782 8.10575 12.0833 8.09063 12.0833C8.06041 12.0883 8.03018 12.0883 7.99995 12.0883L7.91431 12.0833C7.8992 12.0833 7.88408 12.0782 7.86897 12.0782C7.68761 12.053 7.51633 11.9672 7.38031 11.8309C7.37527 11.8259 7.36519 11.8158 7.36015 11.8107L3.64731 8.09085C3.47602 7.91924 3.39038 7.69211 3.39038 7.46498C3.39038 7.23785 3.47602 7.01073 3.64731 6.83912C3.98988 6.4959 4.54907 6.4959 4.89668 6.83912L7.12842 9.07508V0.883281C7.12842 0.398738 7.5264 0 8.01003 0C8.25184 0 8.47351 0.100946 8.63471 0.257413C8.79592 0.418927 8.89164 0.635962 8.89164 0.883281V9.07508L11.1234 6.83912C11.4659 6.4959 12.0251 6.4959 12.3727 6.83912C12.7002 7.18738 12.7002 7.74763 12.3576 8.09085Z" fill="white"/>
</svg>
