<svg width="347" height="280" viewBox="0 0 347 280" fill="none" xmlns="http://www.w3.org/2000/svg">
<g clip-path="url(#clip0)">
<rect width="346.423" height="280" fill="white"/>
<path d="M98.6866 188.365C120.654 188.365 138.461 170.513 138.461 148.492C138.461 126.472 120.654 108.62 98.6866 108.62C76.7195 108.62 58.9117 126.472 58.9117 148.492C58.9117 170.513 76.7195 188.365 98.6866 188.365Z" fill="#E6E6E6"/>
<path d="M87.9404 206.716L97.7244 212.794V171.711L86.7577 164.899C85.851 164.336 85.1885 163.452 84.9014 162.422C85.9491 162.221 87.0337 162.422 87.9404 162.986L97.7245 169.063V153.133C97.7245 150.051 98.1015 146.981 98.8471 143.991C99.5928 146.981 99.9698 150.051 99.9698 153.133V179.135L114.404 170.168C115.557 169.452 116.89 169.084 118.246 169.106C117.662 170.333 116.739 171.366 115.587 172.082L99.9697 181.783V279.761H97.7244V215.442L86.7576 208.63C85.851 208.067 85.1885 207.183 84.9014 206.153C85.9491 205.952 87.0337 206.153 87.9404 206.716Z" fill="#CCCCCC"/>
<path d="M39.7748 191.75C61.7419 191.75 79.5497 173.899 79.5497 151.878C79.5497 129.857 61.7419 112.006 39.7748 112.006C17.8078 112.006 0 129.857 0 151.878C0 173.899 17.8078 191.75 39.7748 191.75Z" fill="#E6E6E6"/>
<path d="M50.5212 210.102L40.7371 216.18V175.097L51.7039 168.284C52.6105 167.721 53.2731 166.837 53.5602 165.807C52.5125 165.607 51.4278 165.808 50.5212 166.371L40.7371 172.449V156.518C40.7371 153.436 40.3601 150.366 39.6144 147.376C38.8688 150.366 38.4917 153.436 38.4918 156.518V182.52L24.0575 173.554C22.905 172.838 21.5714 172.469 20.2157 172.491C20.7993 173.718 21.7223 174.751 22.8748 175.467L38.4918 185.168V279.155H40.7371V218.828L51.7039 212.015C52.6105 211.452 53.2731 210.568 53.5602 209.538C52.5125 209.338 51.4279 209.539 50.5212 210.102Z" fill="#CCCCCC"/>
<path d="M68.6679 137.3C106.49 137.3 137.15 106.564 137.15 68.6499C137.15 30.7356 106.49 0 68.6679 0C30.8462 0 0.185669 30.7356 0.185669 68.6499C0.185669 106.564 30.8462 137.3 68.6679 137.3Z" fill="#E6E6E6"/>
<path d="M87.1704 168.897L70.3248 179.361V108.627L89.2067 96.8978C90.7678 95.9281 91.9085 94.4059 92.4028 92.6329L92.4029 92.6328H92.4028C90.599 92.2874 88.7315 92.6339 87.1704 93.6036L70.3248 104.068V76.6392C70.3248 71.333 69.6756 66.0469 68.3918 60.8991C67.108 66.0469 66.4588 71.333 66.4588 76.6392V121.408L41.6067 105.97C39.6223 104.737 37.3263 104.102 34.9921 104.141C35.9968 106.253 37.586 108.032 39.5704 109.264L66.4588 125.967V279.305H70.3248V183.92L89.2067 172.191C90.7678 171.221 91.9085 169.699 92.4028 167.926L92.4029 167.926H92.4028C90.599 167.581 88.7315 167.927 87.1704 168.897Z" fill="#CCCCCC"/>
<path d="M346.423 279.18H13.7402V280H346.423V279.18Z" fill="#3F3D56"/>
<path d="M263.087 66.041H262.158V19.2939C262.158 15.052 260.477 10.9839 257.485 7.98452C254.493 4.9851 250.435 3.30004 246.203 3.30004H142.351C138.12 3.30004 134.062 4.9851 131.07 7.98452C128.078 10.9839 126.397 15.052 126.397 19.2939V39.7755H126.045C125.796 39.7756 125.558 39.8745 125.382 40.0507C125.206 40.2269 125.108 40.4658 125.108 40.7149V49.8749C125.108 50.124 125.206 50.3629 125.382 50.5391C125.558 50.7152 125.796 50.8142 126.045 50.8142H126.397V59.9824H125.963C125.84 59.9824 125.718 60.0067 125.604 60.0539C125.491 60.1011 125.387 60.1703 125.3 60.2575C125.213 60.3447 125.144 60.4483 125.097 60.5623C125.05 60.6762 125.026 60.7984 125.026 60.9217V78.257C125.026 78.5061 125.124 78.745 125.3 78.9212C125.476 79.0974 125.714 79.1963 125.963 79.1963H126.397V85.9197H126.004C125.881 85.9197 125.759 85.9439 125.645 85.9911C125.531 86.0383 125.428 86.1075 125.341 86.1947C125.254 86.2819 125.185 86.3855 125.138 86.4994C125.091 86.6134 125.067 86.7355 125.067 86.8589V104.358C125.067 104.608 125.165 104.846 125.341 105.023C125.517 105.199 125.755 105.298 126.004 105.298H126.397V263.896C126.397 268.138 128.078 272.206 131.07 275.205C134.062 278.205 138.12 279.89 142.351 279.89H246.203C250.435 279.89 254.493 278.205 257.485 275.205C260.477 272.206 262.158 268.138 262.158 263.896V99.5673H263.087C263.336 99.5673 263.574 99.4683 263.75 99.2922C263.926 99.116 264.024 98.8771 264.024 98.628V66.9804C264.024 66.7312 263.926 66.4923 263.75 66.3161C263.574 66.14 263.336 66.041 263.087 66.041Z" fill="#3F3D56"/>
<path d="M198.556 15.6225H182.765C182.291 15.622 181.836 15.433 181.501 15.097C181.166 14.761 180.977 14.3054 180.976 13.8302V13.1448C180.977 12.6696 181.166 12.214 181.501 11.878C181.836 11.542 182.291 11.353 182.765 11.3526H198.556C199.03 11.353 199.484 11.542 199.82 11.878C200.155 12.214 200.343 12.6696 200.344 13.1448V13.8302C200.343 14.3054 200.155 14.761 199.82 15.097C199.484 15.433 199.03 15.622 198.556 15.6225Z" fill="white"/>
<path d="M205.189 15.6801C206.396 15.6801 207.374 14.6993 207.374 13.4896C207.374 12.2798 206.396 11.2991 205.189 11.2991C203.982 11.2991 203.004 12.2798 203.004 13.4896C203.004 14.6993 203.982 15.6801 205.189 15.6801Z" fill="white"/>
<path d="M242.991 10.5033H227.442V12.3779C227.442 14.7387 226.506 17.0029 224.841 18.6722C223.175 20.3416 220.917 21.2794 218.562 21.2794H169.023C167.858 21.2799 166.704 21.0503 165.627 20.6037C164.55 20.1571 163.571 19.5021 162.746 18.6763C161.922 17.8505 161.267 16.87 160.821 15.7907C160.374 14.7114 160.144 13.5545 160.144 12.3861V10.5033H145.564C142.704 10.5033 139.962 11.6421 137.939 13.6691C135.917 15.6962 134.781 18.4455 134.781 21.3122V261.874C134.781 264.74 135.917 267.49 137.939 269.517C139.962 271.544 142.704 272.683 145.564 272.683H242.991C245.85 272.683 248.591 271.544 250.613 269.518C252.634 267.492 253.77 264.743 253.77 261.878V21.3122C253.77 19.8933 253.492 18.4882 252.951 17.1771C252.41 15.866 251.616 14.6745 250.616 13.6708C249.615 12.6671 248.427 11.8708 247.12 11.3273C245.812 10.7838 244.411 10.5038 242.995 10.5033H242.991Z" fill="white"/>
<path d="M215.145 243.492H173.406C170.422 243.492 167.559 242.303 165.449 240.188C163.339 238.072 162.153 235.203 162.153 232.211C162.153 229.219 163.339 226.35 165.449 224.234C167.559 222.119 170.422 220.93 173.406 220.93H215.145C218.13 220.93 220.992 222.119 223.102 224.234C225.213 226.35 226.398 229.219 226.398 232.211C226.398 235.203 225.213 238.072 223.102 240.188C220.992 242.303 218.13 243.492 215.145 243.492Z" fill="#F51AA4"/>
<path d="M231.513 150.831H157.038C156.007 150.831 155.018 150.42 154.289 149.689C153.56 148.958 153.15 147.967 153.15 146.934C153.15 145.9 153.56 144.909 154.289 144.178C155.018 143.447 156.007 143.037 157.038 143.037H231.513C232.544 143.037 233.533 143.447 234.262 144.178C234.991 144.909 235.401 145.9 235.401 146.934C235.401 147.967 234.991 148.958 234.262 149.689C233.533 150.42 232.544 150.831 231.513 150.831Z" fill="#E6E6E6"/>
<path d="M231.513 162.316H157.038C156.007 162.316 155.018 161.906 154.289 161.175C153.56 160.444 153.15 159.453 153.15 158.42C153.15 157.386 153.56 156.395 154.289 155.664C155.018 154.933 156.007 154.523 157.038 154.523H231.513C232.544 154.523 233.533 154.933 234.262 155.664C234.991 156.395 235.401 157.386 235.401 158.42C235.401 159.453 234.991 160.444 234.262 161.175C233.533 161.906 232.544 162.316 231.513 162.316Z" fill="#E6E6E6"/>
<path d="M231.513 173.802H157.038C156.007 173.802 155.018 173.392 154.289 172.661C153.56 171.93 153.15 170.939 153.15 169.905C153.15 168.872 153.56 167.881 154.289 167.15C155.018 166.419 156.007 166.008 157.038 166.008H231.513C232.544 166.008 233.533 166.419 234.262 167.15C234.991 167.881 235.401 168.872 235.401 169.905C235.401 170.939 234.991 171.93 234.262 172.661C233.533 173.392 232.544 173.802 231.513 173.802Z" fill="#E6E6E6"/>
<path d="M231.513 185.288H157.038C156.007 185.288 155.018 184.877 154.289 184.147C153.56 183.416 153.15 182.425 153.15 181.391C153.15 180.358 153.56 179.366 154.289 178.636C155.018 177.905 156.007 177.494 157.038 177.494H231.513C232.544 177.494 233.533 177.905 234.262 178.636C234.991 179.366 235.401 180.358 235.401 181.391C235.401 182.425 234.991 183.416 234.262 184.147C233.533 184.877 232.544 185.288 231.513 185.288Z" fill="#E6E6E6"/>
<path d="M180.772 196.774H157.038C156.007 196.774 155.018 196.363 154.289 195.632C153.56 194.902 153.15 193.91 153.15 192.877C153.15 191.843 153.56 190.852 154.289 190.121C155.018 189.39 156.007 188.98 157.038 188.98H180.772C181.803 188.98 182.792 189.39 183.521 190.121C184.25 190.852 184.659 191.843 184.659 192.877C184.659 193.91 184.25 194.902 183.521 195.632C182.792 196.363 181.803 196.774 180.772 196.774H180.772Z" fill="#E6E6E6"/>
<path d="M243.17 118.896H145.381C144.517 118.895 143.688 118.55 143.077 117.937C142.466 117.325 142.122 116.494 142.121 115.627V42.8723C142.122 42.0057 142.466 41.1749 143.077 40.5622C143.688 39.9494 144.517 39.6048 145.381 39.6038H243.17C244.034 39.6048 244.863 39.9494 245.474 40.5622C246.085 41.1749 246.429 42.0057 246.43 42.8723V115.627C246.429 116.494 246.085 117.325 245.474 117.937C244.863 118.55 244.034 118.895 243.17 118.896Z" fill="#E6E6E6"/>
<g opacity="0.1">
<path opacity="0.1" d="M260.49 98.1274C260.49 97.5641 260.49 96.998 260.49 96.4292C260.468 96.8678 260.468 97.3073 260.49 97.746C260.486 97.8731 260.49 98.0003 260.49 98.1274Z" fill="black"/>
</g>
<path d="M276.803 130.384C282.733 130.384 287.54 125.565 287.54 119.62C287.54 113.676 282.733 108.857 276.803 108.857C270.873 108.857 266.066 113.676 266.066 119.62C266.066 125.565 270.873 130.384 276.803 130.384Z" fill="#FFB8B8"/>
<path d="M304.728 206.898C305.147 206.514 305.477 206.042 305.694 205.515C305.912 204.989 306.011 204.422 305.986 203.853C305.961 203.284 305.812 202.727 305.549 202.222C305.286 201.717 304.916 201.276 304.464 200.93L303.001 187.894L294.847 190.125L298.817 201.858C298.287 202.657 298.068 203.622 298.202 204.572C298.335 205.522 298.811 206.389 299.539 207.01C300.268 207.632 301.199 207.963 302.155 207.943C303.111 207.922 304.027 207.55 304.728 206.898V206.898Z" fill="#FFB8B8"/>
<path d="M310.685 272.902L315.186 269.985L306.1 251.196L299.458 255.503L310.685 272.902Z" fill="#FFB8B8"/>
<path d="M326.567 268.546L312.424 277.717L308.889 272.239L317.773 266.479C318.463 266.031 319.235 265.724 320.044 265.575C320.854 265.426 321.684 265.439 322.488 265.612C323.293 265.785 324.055 266.115 324.733 266.583C325.41 267.051 325.988 267.649 326.435 268.341L326.567 268.546Z" fill="#2F2E41"/>
<path d="M270.832 274.812H276.192L278.742 254.089H270.832V274.812Z" fill="#FFB8B8"/>
<path d="M286.528 279.801H269.684V273.277H280.263C281.925 273.277 283.518 273.938 284.693 275.116C285.868 276.294 286.528 277.891 286.528 279.557V279.801V279.801Z" fill="#2F2E41"/>
<path d="M292.342 140.992C291.629 143.318 294.156 145.851 294.971 148.137C295.787 150.424 296.884 152.624 297.325 155.017C297.627 156.662 304.464 193.002 304.135 195.215C302.031 194.583 299.764 194.791 297.809 195.796C296.444 193.392 295.623 190.715 295.406 187.956C295.323 186.321 295.339 184.681 295.452 183.047C295.664 178.425 293.665 173.795 293.599 169.169C293.619 167.565 293.493 165.963 293.221 164.383C293.002 163.296 293.022 161.262 292.786 160.179C292.412 158.457 294.023 157.663 293.933 155.898L293.443 146.26C293.34 144.571 291.649 142.501 292.342 140.992Z" fill="#2F2E41"/>
<path d="M268.101 181.43C266.378 184.125 262.751 184.708 260.213 186.638C256.336 189.605 266.227 256.262 269.493 268.104C278.109 266.808 278.411 266.813 279.401 266.377C280.392 265.94 281.288 232.083 283.382 225.104C287.3 228.806 299.632 260.62 302.234 267.672C312.574 265.081 302.234 267.672 315.589 264.217C315.477 261.773 295.854 182.125 295.139 175.85C286.161 177.643 277.054 179.642 268.101 181.43Z" fill="#2F2E41"/>
<path d="M266.94 131.377C265.875 134.538 267.324 146.835 267.43 149.6C267.583 152.11 267.583 154.627 267.43 157.137C267.062 161.485 265.773 165.862 266.638 170.136C267.205 172.964 268.213 175.593 268.448 178.471C268.607 180.465 268.558 182.492 269.187 184.384C271.508 183.386 292.084 179.959 293.595 177.966C292.561 172.957 293.562 167.786 292.876 162.718C292.478 159.796 291.493 156.985 291.029 154.077C290.456 150.487 290.698 146.765 289.653 143.278C289.074 141.513 288.339 139.804 287.455 138.17C286.556 136.312 285.429 134.786 285.043 134.787C284.065 134.84 267.002 131.095 266.94 131.377Z" fill="#F51AA4"/>
<path d="M263.001 206.628C263.001 206.628 266.568 199.492 266.747 195.411C266.81 193.945 270.815 188.113 272.619 186.79C276.896 183.649 280.049 162.598 278.603 157.49C276.103 148.659 271.893 140.427 267.619 132.311C267.492 132.008 267.286 131.745 267.023 131.55C266.154 131.008 265.212 132.075 264.619 132.909C262.606 135.737 259.291 137.25 256.254 138.921C253.217 140.593 250.111 142.82 249.192 146.167C248.576 148.413 249.056 150.796 249.524 153.073C249.991 155.349 251.626 157.157 252.863 159.075C254.296 161.191 258.02 170.577 257.991 171.691C258.064 178.577 258.134 185.487 257.302 192.327C256.834 196.192 256.423 203.959 256.423 203.959L263.001 206.628Z" fill="#2F2E41"/>
<path d="M295.399 199.25C288.831 184.264 289.199 167.211 285.025 151.391C283.785 146.695 282.128 141.976 282.426 137.127C282.479 136.259 282.661 135.285 283.384 134.8C284.027 134.368 284.902 134.484 285.609 134.8C286.315 135.116 286.918 135.631 287.598 135.983C288.695 136.545 289.972 136.705 291.026 137.339C292.591 138.283 293.39 140.078 294.089 141.766C295.585 145.372 297.073 149.078 297.193 152.986C297.445 160.577 294.086 167.872 295.837 175.254C296.214 176.71 296.666 178.145 297.189 179.554C298.944 184.646 300.384 189.842 301.499 195.112C301.695 196.012 295.674 199.881 295.399 199.25Z" fill="#2F2E41"/>
<path d="M274.549 195.704C274.637 195.141 274.6 194.566 274.442 194.019C274.284 193.472 274.009 192.966 273.635 192.537C273.261 192.108 272.798 191.767 272.278 191.537C271.758 191.307 271.194 191.194 270.626 191.207L261.364 181.938L256.384 188.784L266.792 195.466C266.876 196.421 267.306 197.312 268.001 197.971C268.697 198.629 269.609 199.009 270.565 199.038C271.521 199.068 272.455 198.745 273.189 198.13C273.923 197.515 274.407 196.652 274.549 195.704Z" fill="#FFB8B8"/>
<path d="M245.038 174.656C245.191 176.048 256.859 190.734 263.2 195.527C262.832 193.636 267.802 187.468 269.41 186.504C265.391 182.704 256.996 173.891 256.718 173.409C255.81 171.651 256.718 169.551 257.511 167.733C260.007 161.953 261.184 155.396 259.583 149.304C258.979 147.017 257.925 144.728 256.006 143.322C255.167 142.71 254.033 142.291 253.101 142.757C252.711 142.982 252.372 143.286 252.107 143.651C249.133 147.277 244.925 173.622 245.038 174.656Z" fill="#2F2E41"/>
<path d="M272.227 129.039C272.853 126.372 269.685 120.635 270.311 117.969C270.736 116.163 274.972 117.39 275.96 115.822C276.949 114.254 278.604 112.983 280.455 112.962C282.582 112.938 284.675 114.52 286.69 113.836C288.727 113.145 289.378 110.348 288.478 108.39C287.577 106.432 285.637 105.185 283.72 104.207C280.455 102.542 276.654 101.327 273.16 102.428C271.048 103.094 269.282 104.537 267.573 105.948C266.015 107.234 264.431 108.55 263.342 110.253C261.209 113.59 261.338 118.086 263.161 121.603C264.984 125.12 268.306 127.701 271.966 129.199" fill="#2F2E41"/>
</g>
<defs>
<clipPath id="clip0">
<rect width="346.423" height="280" fill="white"/>
</clipPath>
</defs>
</svg>
