<svg width="246" height="280" viewBox="0 0 246 280" fill="none" xmlns="http://www.w3.org/2000/svg">
<g clip-path="url(#clip0)">
<rect width="245.677" height="280" fill="white"/>
<path d="M245.677 62.5021H244.231V22.9131C244.231 16.8362 241.816 11.0081 237.516 6.7111C233.217 2.41407 227.385 2.29123e-05 221.305 1.81199e-05H137.38C134.369 1.05264e-05 131.388 0.592666 128.606 1.74415C125.825 2.89563 123.297 4.58339 121.168 6.71105C119.039 8.83872 117.351 11.3646 116.198 14.1446C115.046 16.9245 114.453 19.904 114.453 22.913V240.101C114.453 243.11 115.046 246.09 116.198 248.87C117.351 251.65 119.039 254.176 121.168 256.303C123.297 258.431 125.825 260.119 128.606 261.27C131.388 262.422 134.369 263.014 137.38 263.014H221.305C227.385 263.015 233.217 260.6 237.516 256.303C241.816 252.006 244.231 246.178 244.231 240.102V90.6822H245.677L245.677 62.5021Z" fill="#E6E6E6"/>
<path d="M222.23 5.9612H211.275C211.779 7.19559 211.971 8.53486 211.835 9.86103C211.699 11.1872 211.238 12.4596 210.494 13.566C209.75 14.6725 208.745 15.5791 207.568 16.206C206.391 16.8329 205.077 17.1609 203.744 17.161H155.664C154.33 17.1609 153.017 16.8329 151.84 16.206C150.662 15.5791 149.657 14.6725 148.913 13.566C148.169 12.4595 147.709 11.1872 147.573 9.86101C147.437 8.53484 147.629 7.19556 148.133 5.96117H137.901C133.36 5.96116 129.005 7.76394 125.794 10.9729C122.583 14.1819 120.779 18.5342 120.779 23.0723V239.942C120.779 242.189 121.222 244.414 122.083 246.49C122.943 248.566 124.204 250.453 125.794 252.042C127.384 253.631 129.272 254.891 131.349 255.751C133.426 256.611 135.652 257.053 137.901 257.053H222.23C224.478 257.053 226.705 256.611 228.782 255.751C230.859 254.891 232.747 253.631 234.336 252.042C235.926 250.453 237.187 248.566 238.048 246.49C238.908 244.414 239.351 242.189 239.351 239.942V23.0724C239.351 20.8253 238.908 18.6002 238.048 16.5242C237.187 14.4482 235.926 12.5618 234.336 10.9729C232.747 9.38401 230.859 8.12361 228.782 7.2637C226.705 6.40378 224.478 5.96119 222.23 5.9612Z" fill="white"/>
<path d="M232.393 176.295H131.28C130.783 176.294 130.307 176.097 129.956 175.746C129.605 175.395 129.408 174.92 129.407 174.423V149.357C129.408 148.861 129.605 148.385 129.956 148.034C130.307 147.683 130.783 147.486 131.28 147.485H232.393C232.889 147.486 233.365 147.683 233.716 148.034C234.067 148.385 234.264 148.861 234.265 149.357V174.424C234.264 174.92 234.067 175.395 233.716 175.746C233.365 176.097 232.889 176.294 232.393 176.295ZM131.28 148.234C130.982 148.234 130.696 148.353 130.486 148.563C130.275 148.774 130.157 149.059 130.156 149.357V174.424C130.157 174.721 130.275 175.007 130.486 175.217C130.696 175.428 130.982 175.546 131.28 175.547H232.393C232.691 175.546 232.976 175.428 233.187 175.217C233.397 175.007 233.516 174.721 233.516 174.424V149.357C233.516 149.059 233.397 148.774 233.187 148.563C232.976 148.353 232.691 148.234 232.393 148.234H131.28Z" fill="#E6E6E6"/>
<path d="M144.387 169.75C148.73 169.75 152.251 166.231 152.251 161.89C152.251 157.549 148.73 154.03 144.387 154.03C140.043 154.03 136.522 157.549 136.522 161.89C136.522 166.231 140.043 169.75 144.387 169.75Z" fill="#E6E6E6"/>
<path d="M162.55 156.65C162.206 156.656 161.878 156.797 161.637 157.042C161.396 157.287 161.261 157.617 161.261 157.96C161.261 158.304 161.396 158.634 161.637 158.879C161.878 159.124 162.206 159.264 162.55 159.27H224.341C224.513 159.273 224.684 159.243 224.845 159.18C225.005 159.117 225.152 159.023 225.276 158.903C225.4 158.783 225.499 158.64 225.568 158.482C225.637 158.324 225.673 158.154 225.676 157.982C225.679 157.81 225.648 157.638 225.584 157.478C225.521 157.318 225.426 157.172 225.306 157.048C225.186 156.924 225.043 156.826 224.885 156.757C224.726 156.689 224.556 156.653 224.384 156.65C224.369 156.65 224.355 156.65 224.341 156.65H162.55Z" fill="#E6E6E6"/>
<path d="M162.55 164.51C162.206 164.516 161.878 164.656 161.637 164.901C161.396 165.146 161.261 165.476 161.261 165.82C161.261 166.164 161.396 166.494 161.637 166.739C161.878 166.984 162.206 167.124 162.55 167.13H224.341C224.513 167.133 224.684 167.102 224.845 167.039C225.005 166.976 225.152 166.882 225.276 166.763C225.4 166.643 225.499 166.5 225.568 166.342C225.637 166.184 225.673 166.014 225.676 165.841C225.679 165.669 225.648 165.498 225.584 165.338C225.521 165.178 225.426 165.031 225.306 164.908C225.186 164.784 225.043 164.685 224.885 164.617C224.726 164.549 224.556 164.512 224.384 164.51C224.369 164.51 224.355 164.51 224.341 164.51H162.55Z" fill="#E6E6E6"/>
<path d="M232.393 218.213H131.28C130.783 218.212 130.307 218.015 129.956 217.664C129.605 217.313 129.408 216.838 129.407 216.341V191.275C129.408 190.779 129.605 190.303 129.956 189.952C130.307 189.601 130.783 189.404 131.28 189.404H232.393C232.889 189.404 233.365 189.601 233.716 189.952C234.067 190.303 234.264 190.779 234.265 191.275V216.342C234.264 216.838 234.067 217.313 233.716 217.664C233.365 218.015 232.889 218.212 232.393 218.213ZM131.28 190.152C130.982 190.152 130.696 190.271 130.486 190.481C130.275 190.692 130.157 190.977 130.156 191.275V216.342C130.157 216.64 130.275 216.925 130.486 217.135C130.696 217.346 130.982 217.464 131.28 217.465H232.393C232.691 217.464 232.976 217.346 233.187 217.135C233.397 216.925 233.516 216.64 233.516 216.342V191.275C233.516 190.977 233.397 190.692 233.187 190.481C232.976 190.271 232.691 190.152 232.393 190.152H131.28Z" fill="#E6E6E6"/>
<path d="M144.387 211.668C148.73 211.668 152.251 208.149 152.251 203.808C152.251 199.467 148.73 195.948 144.387 195.948C140.043 195.948 136.522 199.467 136.522 203.808C136.522 208.149 140.043 211.668 144.387 211.668Z" fill="#E6E6E6"/>
<path d="M162.55 198.569C162.206 198.574 161.878 198.715 161.637 198.96C161.396 199.205 161.261 199.535 161.261 199.878C161.261 200.222 161.396 200.552 161.637 200.797C161.878 201.042 162.206 201.183 162.55 201.188H224.341C224.513 201.192 224.684 201.161 224.845 201.098C225.005 201.035 225.152 200.941 225.276 200.821C225.4 200.701 225.499 200.558 225.568 200.4C225.637 200.242 225.673 200.072 225.676 199.9C225.679 199.728 225.648 199.556 225.584 199.396C225.521 199.236 225.426 199.09 225.306 198.966C225.186 198.843 225.043 198.744 224.885 198.676C224.726 198.607 224.556 198.571 224.384 198.569C224.369 198.568 224.355 198.568 224.341 198.569H162.55Z" fill="#E6E6E6"/>
<path d="M162.55 206.428C162.206 206.434 161.878 206.574 161.637 206.819C161.396 207.064 161.261 207.394 161.261 207.738C161.261 208.082 161.396 208.412 161.637 208.657C161.878 208.902 162.206 209.042 162.55 209.048H224.341C224.513 209.051 224.684 209.02 224.845 208.957C225.005 208.894 225.152 208.8 225.276 208.681C225.4 208.561 225.499 208.418 225.568 208.26C225.637 208.102 225.673 207.932 225.676 207.76C225.679 207.587 225.648 207.416 225.584 207.256C225.521 207.096 225.426 206.949 225.306 206.826C225.186 206.702 225.043 206.603 224.885 206.535C224.726 206.467 224.556 206.43 224.384 206.428C224.369 206.428 224.355 206.428 224.341 206.428H162.55Z" fill="#E6E6E6"/>
<path d="M147.569 101.784L147.057 101.273L160.598 87.7403L169.56 96.6963L187.279 78.988L193.064 84.7703L208.851 68.993L209.362 69.504L193.064 85.7923L187.279 80.01L169.56 97.7183L160.598 88.7623L147.569 101.784Z" fill="#F51AA4"/>
<path d="M179.708 124.277C175.038 124.279 170.414 123.362 166.098 121.578C161.783 119.794 157.862 117.177 154.558 113.878C151.254 110.58 148.633 106.663 146.844 102.351C145.055 98.0402 144.134 93.419 144.132 88.7518V88.7221C144.132 88.6477 144.132 88.5693 144.136 88.4948C144.245 69.0233 160.203 53.1664 179.708 53.1664C189.144 53.1653 198.193 56.9103 204.866 63.5775C211.539 70.2446 215.288 79.2879 215.289 88.7177C215.29 98.1476 211.543 107.192 204.872 113.86C198.201 120.529 189.152 124.276 179.716 124.277H179.708V124.277ZM179.708 53.9141C170.513 53.9347 161.698 57.5807 155.178 64.0599C148.657 70.5391 144.959 79.3281 144.885 88.5172C144.881 88.5967 144.881 88.6618 144.881 88.721C144.881 95.6061 146.923 102.337 150.749 108.062C154.576 113.787 160.015 118.25 166.38 120.885C172.744 123.521 179.748 124.211 186.505 122.869C193.261 121.526 199.468 118.212 204.34 113.344C209.212 108.476 212.53 102.274 213.875 95.521C215.22 88.7684 214.531 81.769 211.896 75.4077C209.26 69.0464 204.796 63.6091 199.069 59.7833C193.341 55.9575 186.607 53.915 179.718 53.9141H179.708Z" fill="#E6E6E6"/>
<path d="M46.6987 89.4593C46.6987 89.4593 48.6021 98.2097 42.1306 101.634C42.1306 101.634 43.6533 121.037 53.5509 121.417C63.4486 121.798 63.4485 111.145 63.4485 111.145L61.9258 105.438C61.9258 105.438 54.693 101.253 59.2611 93.2638L46.6987 89.4593Z" fill="#FEB8B8"/>
<path d="M54.8833 94.215C64.7647 94.215 72.7752 86.2093 72.7752 76.3338C72.7752 66.4582 64.7647 58.4526 54.8833 58.4526C45.0019 58.4526 36.9915 66.4582 36.9915 76.3338C36.9915 86.2093 45.0019 94.215 54.8833 94.215Z" fill="#2F2E41"/>
<path d="M36.0398 130.168V151.473L67.6361 150.332L65.3518 129.407L36.0398 130.168Z" fill="#FEB8B8"/>
<path d="M55.0737 95.5466C61.3809 95.5466 66.494 90.4365 66.494 84.133C66.494 77.8295 61.3809 72.7195 55.0737 72.7195C48.7664 72.7195 43.6533 77.8295 43.6533 84.133C43.6533 90.4365 48.7664 95.5466 55.0737 95.5466Z" fill="#FEB8B8"/>
<path d="M40.9886 101.634C40.9886 101.634 34.517 100.492 32.233 101.634C29.9489 102.775 27.2841 102.395 24.6194 113.428L19.6706 136.255C19.6706 136.255 18.9092 143.103 24.6194 142.342C30.3296 141.581 29.9489 131.689 29.9489 131.689L33.7557 122.939L40.6079 115.33L40.9886 101.634Z" fill="#FEB8B8"/>
<path d="M62.6872 106.199C62.6872 106.199 71.8235 107.341 72.5848 112.286C73.3461 117.232 69.1587 137.396 69.1587 137.396L62.6872 130.929L66.1133 118.374L62.6872 106.199Z" fill="#FEB8B8"/>
<path d="M39.2755 101.444L39.4658 108.482L34.1364 119.895L36.475 149.615L67.8575 150.255L65.7326 127.504C65.7326 127.504 69.9201 122.178 67.636 117.613C65.352 113.047 63.6389 106.009 63.6389 106.009L60.5935 104.107C60.5935 104.107 65.7326 116.091 55.0737 114.189C44.4147 112.286 43.8436 100.302 43.8436 100.302L39.2755 101.444Z" fill="#E6E6E6"/>
<path d="M30.3296 178.104L25.0001 208.16L18.9092 251.912L16.2445 256.858L18.5286 261.804L25.0001 258.76L27.6649 246.966C27.6649 246.966 36.8011 235.933 35.2784 221.856L51.6476 182.67L30.3296 178.104Z" fill="#FEB8B8"/>
<path d="M56.5963 181.148L60.4031 218.432C60.4031 218.432 59.6418 228.704 61.9258 237.835C64.2099 246.966 65.7326 262.945 65.7326 262.945H73.3462L71.8235 216.15L76.7723 178.104L56.5963 181.148Z" fill="#FEB8B8"/>
<path d="M51.2669 146.907C51.2669 146.907 35.2784 145.766 35.2784 147.668V151.473C35.2784 151.473 32.233 156.419 32.6137 160.984C32.9943 165.55 14.7893 197.856 24.3062 202.421C33.8232 206.987 44.4987 210.664 46.4021 209.142C48.3054 207.62 54.693 177.343 54.693 177.343C54.693 177.343 54.5042 210.362 57.9303 210.742C61.3564 211.123 86.751 214.166 86.751 210.742C86.751 207.318 66.8677 143.293 66.8677 143.293C66.8677 143.293 55.835 147.288 51.2669 146.907Z" fill="#2F2E41"/>
<path d="M18.1479 257.238C18.1479 257.238 16.6252 254.575 15.1025 256.477C13.5798 258.38 7.86959 262.945 7.86959 262.945C7.86959 262.945 -6.21549 266.75 3.30146 272.456C3.30146 272.456 11.6764 272.456 15.1025 269.793C18.5286 267.13 21.9547 268.271 21.9547 268.271C21.9547 268.271 27.2841 267.891 27.6648 265.608C28.0455 263.325 25.6706 255.792 25.6706 255.792C25.6706 255.792 23.0967 259.14 18.1479 257.238Z" fill="#2F2E41"/>
<path d="M68.7781 259.521C68.7781 259.521 64.2099 258.38 64.2099 259.521C64.2099 260.662 57.7384 267.51 63.0679 270.554C68.3974 273.598 69.1587 272.837 69.5394 275.88C69.9201 278.924 79.8177 281.207 81.3404 279.304C82.8632 277.402 84.0052 273.978 82.1018 272.456C80.1984 270.934 74.1075 261.423 74.1075 259.521C74.1075 257.619 68.7781 259.521 68.7781 259.521Z" fill="#2F2E41"/>
<path opacity="0.1" d="M53.5975 126.532H52.5648V132.239H53.5975V126.532Z" fill="white"/>
<path d="M70.6814 132.831C70.6814 132.831 63.4485 123.319 63.8292 130.168C64.2099 137.016 68.3974 140.44 69.1587 140.44C69.9201 140.44 72.9655 139.679 70.6814 132.831Z" fill="#FEB8B8"/>
<path opacity="0.1" d="M36.0397 140.157C36.6108 140.25 45.747 136.825 45.747 136.825L51.4572 136.065L36.0398 142.508L36.0397 140.157Z" fill="black"/>
<path d="M38.5142 68.7247C41.4576 68.7247 43.8436 66.3401 43.8436 63.3984C43.8436 60.4568 41.4576 58.0721 38.5142 58.0721C35.5708 58.0721 33.1847 60.4568 33.1847 63.3984C33.1847 66.3401 35.5708 68.7247 38.5142 68.7247Z" fill="#2F2E41"/>
<path d="M71.2524 67.2029C74.1958 67.2029 76.5819 64.8183 76.5819 61.8766C76.5819 58.935 74.1958 56.5503 71.2524 56.5503C68.3091 56.5503 65.923 58.935 65.923 61.8766C65.923 64.8183 68.3091 67.2029 71.2524 67.2029Z" fill="#2F2E41"/>
<path d="M65.5423 59.5939C65.5425 58.2802 66.0284 57.013 66.9068 56.0356C67.7851 55.0583 68.9939 54.4398 70.3008 54.2991C69.5565 54.2179 68.8034 54.2942 68.0907 54.5233C67.3779 54.7523 66.7214 55.1289 66.164 55.6284C65.6066 56.128 65.1607 56.7393 64.8555 57.4226C64.5503 58.1058 64.3925 58.8457 64.3925 59.5939C64.3925 60.3422 64.5503 61.0821 64.8555 61.7653C65.1607 62.4486 65.6066 63.0599 66.164 63.5594C66.7214 64.059 67.3779 64.4355 68.0907 64.6646C68.8034 64.8936 69.5565 64.97 70.3008 64.8888C68.9939 64.748 67.7851 64.1296 66.9068 63.1522C66.0284 62.1749 65.5425 60.9076 65.5423 59.5939Z" fill="#2F2E41"/>
<path d="M32.5593 67.7068C31.6395 66.7683 31.0991 65.5232 31.0421 64.2108C30.9851 62.8984 31.4154 61.6111 32.2503 60.5965C31.6618 61.0591 31.1774 61.6403 30.8287 62.3025C30.48 62.9646 30.2748 63.6928 30.2264 64.4395C30.1781 65.1862 30.2877 65.9346 30.5482 66.6362C30.8086 67.3377 31.2141 67.9765 31.7381 68.511C32.262 69.0454 32.8928 69.4636 33.5893 69.7381C34.2858 70.0127 35.0323 70.1375 35.7803 70.1044C36.5283 70.0713 37.2609 69.8811 37.9304 69.5462C38.5999 69.2113 39.1913 68.7391 39.666 68.1605C38.634 68.9741 37.3375 69.3778 36.0257 69.294C34.7139 69.2103 33.4794 68.645 32.5593 67.7068Z" fill="#2F2E41"/>
<path d="M54.8833 67.9638C48.576 67.9638 43.463 70.9447 43.463 74.6217C43.463 76.267 44.4907 77.7707 46.1872 78.9323L48.3858 77.3403L47.7879 79.8344C48.036 79.9493 48.2893 80.0605 48.5535 80.1633L51.8379 76.3338V81.0383C52.845 81.1996 53.8634 81.2803 54.8833 81.2796C61.1906 81.2796 66.3037 78.2988 66.3037 74.6217C66.3037 70.9447 61.1906 67.9638 54.8833 67.9638Z" fill="#2F2E41"/>
<path d="M65.923 61.8766C65.923 61.8766 65.0952 65.6811 70.2676 67.2029L65.923 61.8766Z" fill="#F51AA4"/>
<path d="M43.463 62.5691C43.463 62.5691 45.3664 66.8225 39.6562 68.7248L43.463 62.5691Z" fill="#F51AA4"/>
<path d="M53.4471 125.932C53.1924 125.932 52.9482 126.034 52.7681 126.214C52.588 126.394 52.4867 126.638 52.4864 126.892V138.093C52.4867 138.348 52.588 138.592 52.7681 138.772C52.9482 138.952 53.1924 139.053 53.4471 139.054H72.9811C73.2358 139.053 73.48 138.952 73.6601 138.772C73.8402 138.592 73.9415 138.348 73.9418 138.093V126.892C73.9415 126.638 73.8402 126.394 73.6601 126.214C73.48 126.034 73.2358 125.932 72.9811 125.932L53.4471 125.932Z" fill="#F51AA4"/>
<path d="M70.8996 130.253H55.5286C55.4865 130.253 55.4447 130.245 55.4057 130.229C55.3668 130.212 55.3313 130.189 55.3015 130.159C55.2716 130.129 55.2479 130.094 55.2318 130.055C55.2156 130.016 55.2073 129.975 55.2073 129.933C55.2073 129.89 55.2156 129.849 55.2318 129.81C55.2479 129.771 55.2716 129.736 55.3015 129.706C55.3313 129.676 55.3668 129.653 55.4057 129.637C55.4447 129.62 55.4865 129.612 55.5286 129.612H70.8996C70.9418 129.612 70.9835 129.62 71.0225 129.637C71.0615 129.653 71.0969 129.676 71.1268 129.706C71.1566 129.736 71.1803 129.771 71.1965 129.81C71.2126 129.849 71.2209 129.89 71.2209 129.933C71.2209 129.975 71.2126 130.016 71.1965 130.055C71.1803 130.094 71.1566 130.129 71.1268 130.159C71.0969 130.189 71.0615 130.212 71.0225 130.229C70.9835 130.245 70.9418 130.253 70.8996 130.253Z" fill="white"/>
<path d="M70.8996 132.813H55.5286C55.4865 132.813 55.4447 132.805 55.4057 132.789C55.3668 132.773 55.3313 132.749 55.3015 132.719C55.2716 132.69 55.2479 132.654 55.2318 132.616C55.2156 132.577 55.2073 132.535 55.2073 132.493C55.2073 132.451 55.2156 132.409 55.2318 132.37C55.2479 132.331 55.2716 132.296 55.3015 132.266C55.3313 132.236 55.3668 132.213 55.4057 132.197C55.4447 132.181 55.4865 132.173 55.5286 132.173H70.8996C70.9418 132.173 70.9835 132.181 71.0225 132.197C71.0615 132.213 71.0969 132.236 71.1268 132.266C71.1566 132.296 71.1803 132.331 71.1965 132.37C71.2126 132.409 71.2209 132.451 71.2209 132.493C71.2209 132.535 71.2126 132.577 71.1965 132.616C71.1803 132.654 71.1566 132.69 71.1268 132.719C71.0969 132.749 71.0615 132.773 71.0225 132.789C70.9835 132.805 70.9418 132.813 70.8996 132.813Z" fill="white"/>
<path d="M70.8996 135.373H55.5286C55.4437 135.373 55.3622 135.339 55.3022 135.279C55.2421 135.219 55.2084 135.138 55.2084 135.053C55.2084 134.968 55.2421 134.887 55.3022 134.827C55.3622 134.767 55.4437 134.733 55.5286 134.733H70.8996C70.9845 134.733 71.066 134.767 71.1261 134.827C71.1861 134.887 71.2199 134.968 71.2199 135.053C71.2199 135.138 71.1861 135.219 71.1261 135.279C71.066 135.339 70.9845 135.373 70.8996 135.373Z" fill="white"/>
<path d="M24.2387 133.592C24.2387 133.592 27.2842 131.689 33.375 132.45L45.176 129.407C45.176 129.407 56.2157 122.939 60.4032 130.928C64.5906 138.918 44.7953 136.255 44.7953 136.255C44.7953 136.255 31.4716 146.907 23.4774 141.201L24.2387 133.592Z" fill="#FEB8B8"/>
</g>
<defs>
<clipPath id="clip0">
<rect width="245.677" height="280" fill="white"/>
</clipPath>
</defs>
</svg>
